<?xml version="1.0" encoding="iso-8859-1"?>
<!-- Generator: Adobe Illustrator 19.0.0, SVG Export Plug-In . SVG Version: 6.00 Build 0)  -->
<svg version="1.1" id="Capa_1" xmlns="http://www.w3.org/2000/svg" xmlns:xlink="http://www.w3.org/1999/xlink" x="0px" y="0px"
	 viewBox="0 0 512 512" style="enable-background:new 0 0 512 512;" xml:space="preserve" height="80" width="80" >
<g>
	<g>
		<path d="M196,392c-5.52,0-10,4.48-10,10c0,5.52,4.48,10,10,10s10-4.48,10-10C206,396.48,201.52,392,196,392z"/>
	</g>
</g>
<g>
	<g>
		<path d="M316,392h-80c-5.523,0-10,4.477-10,10s4.477,10,10,10h80c5.522,0,10-4.477,10-10S321.522,392,316,392z"/>
	</g>
</g>
<g>
	<g>
		<path d="M400.924,438.683c0.694-1.042,1.339-2.128,1.91-3.271c5.114-10.23,4.027-22.268-2.834-31.412l-31.568-42.091
			C373.323,356.414,376,349.413,376,342c0-16.542-13.458-30-30-30h-0.899l-18.399-195.027l38.777-12.926
			C377.753,99.961,386,88.521,386,75.58V10c0-5.523-4.478-10-10-10h-40c-5.522,0-10,4.477-10,10v30h-20V10c0-5.523-4.478-10-10-10
			h-80c-5.523,0-10,4.477-10,10v30h-20V10c0-5.523-4.477-10-10-10h-40c-5.523,0-10,4.477-10,10v65.58
			c0,12.941,8.247,24.381,20.518,28.467l38.78,12.927L166.899,312H166c-8.01,0-15.543,3.121-21.212,8.789
			C139.121,326.457,136,333.99,136,342c0,7.63,2.868,14.599,7.576,19.899l-31.574,42.099c-6.863,9.146-7.95,21.183-2.836,31.413
			c0.571,1.143,1.216,2.229,1.911,3.272C96.105,447.331,86,463.503,86,482v20c0,5.523,4.477,10,10,10h320c5.522,0,10-4.477,10-10
			v-20C426,463.503,415.896,447.331,400.924,438.683z M152.839,85.072C148.749,83.71,146,79.896,146,75.58V20h20v30
			c0,5.523,4.477,10,10,10h40c5.523,0,10-4.477,10-10V20h60v30c0,5.523,4.478,10,10,10h40c5.522,0,10-4.477,10-10V20h20v55.58
			c0,4.315-2.748,8.13-6.842,9.493L314.377,100H197.623L152.839,85.072z M325.012,312H186.988l18.113-192h101.798L325.012,312z
			 M158.931,334.932c1.891-1.891,4.401-2.932,7.069-2.932h10h160h10c5.514,0,10,4.486,10,10c0,2.668-1.041,5.179-2.931,7.068
			c-1.89,1.891-4.401,2.932-7.069,2.932H166c-5.514,0-10-4.486-10-10C156,339.332,157.041,336.821,158.931,334.932z M128,416l33-44
			h5h180h5l33.001,44.002c2.321,3.093,2.674,7.006,0.944,10.468c-1.731,3.463-5.075,5.53-8.945,5.53H136
			c-3.87,0-7.214-2.067-8.945-5.531C125.325,423.008,125.678,419.095,128,416z M406,492H106v-10c0-16.542,13.458-30,30-30h240
			c16.542,0,30,13.458,30,30V492z"/>
	</g>
</g>
<g>
</g>
<g>
</g>
<g>
</g>
<g>
</g>
<g>
</g>
<g>
</g>
<g>
</g>
<g>
</g>
<g>
</g>
<g>
</g>
<g>
</g>
<g>
</g>
<g>
</g>
<g>
</g>
<g>
</g>
</svg>
