<?xml version="1.0" encoding="iso-8859-1"?>
<!-- Generator: Adobe Illustrator 19.0.0, SVG Export Plug-In . SVG Version: 6.00 Build 0)  -->
<svg version="1.1" id="Capa_1" xmlns="http://www.w3.org/2000/svg" xmlns:xlink="http://www.w3.org/1999/xlink" x="0px" y="0px"
	 viewBox="0 0 512 512" style="enable-background:new 0 0 512 512;" height="80" width="80" xml:space="preserve">
<g>
	<g>
		<path d="M360.467,493.039l-19.438-71C339.244,415.52,333.32,411,326.561,411h-7.681l-9.586-129h6.126c8.284,0,15-6.716,15-15v-51
			c0-8.284-6.716-15-15-15h-1.486c2.778-8.894,5.245-19.987,5.915-32.578c1.827-34.312-10.234-68.018-37.165-97.494
			C291.144,63.5,296.5,52.617,296.5,40.5C296.5,18.168,278.332,0,256,0c-22.332,0-40.5,18.168-40.5,40.5
			c0,12.117,5.355,23,13.816,30.428c-32.602,35.683-38.527,71.925-37.165,97.494c0.67,12.591,3.137,23.684,5.915,32.578h-1.486
			c-8.284,0-15,6.716-15,15v51c0,8.284,6.716,15,15,15h6.126l-9.586,129h-7.681c-6.759,0-12.683,4.52-14.468,11.039l-19.438,71
			c-1.235,4.512-0.295,9.341,2.543,13.06C156.912,509.818,161.323,512,166,512h180c4.678,0,9.088-2.182,11.925-5.901
			C360.762,502.38,361.703,497.551,360.467,493.039z M256,30c5.79,0,10.5,4.71,10.5,10.5S261.79,51,256,51
			c-5.79,0-10.5-4.71-10.5-10.5S250.21,30,256,30z M256,86.414c12.103,12.151,20.23,24.367,25.503,36.129l-30.066,29.015
			c-5.961,5.752-6.13,15.249-0.378,21.21c5.729,5.936,15.224,6.154,21.21,0.377l17.6-16.984c1.222,19.788-3.966,35.966-7.736,44.839
			H229.87C222.152,182.843,208.486,134.114,256,86.414z M211.58,231c13.241,0,77.98,0,88.84,0v21c-29.698,0-59.273,0-88.84,0V231z
			 M288.797,411h-65.594l9.586-129h46.422L288.797,411z M185.659,482l11.225-41c33.987,0,64.492,0,118.232,0l11.225,41H185.659z"/>
	</g>
</g>
<g>
</g>
<g>
</g>
<g>
</g>
<g>
</g>
<g>
</g>
<g>
</g>
<g>
</g>
<g>
</g>
<g>
</g>
<g>
</g>
<g>
</g>
<g>
</g>
<g>
</g>
<g>
</g>
<g>
</g>
</svg>
